<svg width="47" height="42" viewBox="0 0 47 42" fill="none" xmlns="http://www.w3.org/2000/svg">
<g filter="url(#filter0_d_23_228)">
<path d="M10.9028 33.6667C9.16669 33.6667 7.691 33.059 6.47572 31.8437C5.26044 30.6285 4.6528 29.1528 4.6528 27.4167C4.6528 25.6805 5.26044 24.2049 6.47572 22.9896C7.691 21.7743 9.16669 21.1667 10.9028 21.1667C12.6389 21.1667 14.1146 21.7743 15.3299 22.9896C16.5452 24.2049 17.1528 25.6805 17.1528 27.4167C17.1528 29.1528 16.5452 30.6285 15.3299 31.8437C14.1146 33.059 12.6389 33.6667 10.9028 33.6667ZM35.9028 33.6667C34.1667 33.6667 32.691 33.059 31.4757 31.8437C30.2604 30.6285 29.6528 29.1528 29.6528 27.4167C29.6528 25.6805 30.2604 24.2049 31.4757 22.9896C32.691 21.7743 34.1667 21.1667 35.9028 21.1667C37.6389 21.1667 39.1146 21.7743 40.3299 22.9896C41.5452 24.2049 42.1528 25.6805 42.1528 27.4167C42.1528 29.1528 41.5452 30.6285 40.3299 31.8437C39.1146 33.059 37.6389 33.6667 35.9028 33.6667ZM23.4028 12.8333C21.6667 12.8333 20.191 12.2257 18.9757 11.0104C17.7604 9.79513 17.1528 8.31944 17.1528 6.58333C17.1528 4.84722 17.7604 3.37152 18.9757 2.15624C20.191 0.940967 21.6667 0.333328 23.4028 0.333328C25.1389 0.333328 26.6146 0.940967 27.8299 2.15624C29.0452 3.37152 29.6528 4.84722 29.6528 6.58333C29.6528 8.31944 29.0452 9.79513 27.8299 11.0104C26.6146 12.2257 25.1389 12.8333 23.4028 12.8333Z" fill="white"/>
</g>
<defs>
<filter id="filter0_d_23_228" x="0.652802" y="0.333328" width="45.5" height="41.3333" filterUnits="userSpaceOnUse" color-interpolation-filters="sRGB">
<feFlood flood-opacity="0" result="BackgroundImageFix"/>
<feColorMatrix in="SourceAlpha" type="matrix" values="0 0 0 0 0 0 0 0 0 0 0 0 0 0 0 0 0 0 127 0" result="hardAlpha"/>
<feOffset dy="4"/>
<feGaussianBlur stdDeviation="2"/>
<feComposite in2="hardAlpha" operator="out"/>
<feColorMatrix type="matrix" values="0 0 0 0 0 0 0 0 0 0 0 0 0 0 0 0 0 0 0.25 0"/>
<feBlend mode="normal" in2="BackgroundImageFix" result="effect1_dropShadow_23_228"/>
<feBlend mode="normal" in="SourceGraphic" in2="effect1_dropShadow_23_228" result="shape"/>
</filter>
</defs>
</svg>
