<svg width="49" height="38" viewBox="0 0 49 38" fill="none" xmlns="http://www.w3.org/2000/svg">
<g filter="url(#filter0_d_14_562)">
<path d="M13.3195 0C11.9934 0 10.7216 0.526784 9.78397 1.46447C8.84629 2.40215 8.3195 3.67392 8.3195 5L8.3195 18.3333C8.3195 19.6594 8.84629 20.9312 9.78397 21.8689C10.7216 22.8065 11.9934 23.3333 13.3195 23.3333L36.6528 23.3333C37.9789 23.3333 39.2507 22.8065 40.1884 21.8689C41.1261 20.9312 41.6528 19.6594 41.6528 18.3333L41.6528 5C41.6528 3.67392 41.1261 2.40215 40.1884 1.46447C39.2507 0.526784 37.9789 0 36.6528 0L13.3195 0ZM11.6528 5C11.6528 4.55797 11.8284 4.13405 12.141 3.82149C12.4536 3.50893 12.8775 3.33333 13.3195 3.33333L36.6528 3.33333C37.0949 3.33333 37.5188 3.50893 37.8313 3.82149C38.1439 4.13405 38.3195 4.55797 38.3195 5L38.3195 18.3333C38.3195 18.7754 38.1439 19.1993 37.8313 19.5118C37.5188 19.8244 37.0949 20 36.6528 20L13.3195 20C12.8775 20 12.4536 19.8244 12.141 19.5118C11.8284 19.1993 11.6528 18.7754 11.6528 18.3333L11.6528 5ZM6.65283 26.6667C6.21081 26.6667 5.78688 26.8423 5.47432 27.1548C5.16176 27.4674 4.98617 27.8913 4.98617 28.3333C4.98617 28.7754 5.16176 29.1993 5.47432 29.5118C5.78688 29.8244 6.21081 30 6.65283 30L43.3195 30C43.7615 30 44.1855 29.8244 44.498 29.5118C44.8106 29.1993 44.9862 28.7754 44.9862 28.3333C44.9862 27.8913 44.8106 27.4674 44.498 27.1548C44.1855 26.8423 43.7615 26.6667 43.3195 26.6667L6.65283 26.6667Z" fill="white"/>
</g>
<defs>
<filter id="filter0_d_14_562" x="0.986168" y="0" width="48" height="38" filterUnits="userSpaceOnUse" color-interpolation-filters="sRGB">
<feFlood flood-opacity="0" result="BackgroundImageFix"/>
<feColorMatrix in="SourceAlpha" type="matrix" values="0 0 0 0 0 0 0 0 0 0 0 0 0 0 0 0 0 0 127 0" result="hardAlpha"/>
<feOffset dy="4"/>
<feGaussianBlur stdDeviation="2"/>
<feComposite in2="hardAlpha" operator="out"/>
<feColorMatrix type="matrix" values="0 0 0 0 0 0 0 0 0 0 0 0 0 0 0 0 0 0 0.25 0"/>
<feBlend mode="normal" in2="BackgroundImageFix" result="effect1_dropShadow_14_562"/>
<feBlend mode="normal" in="SourceGraphic" in2="effect1_dropShadow_14_562" result="shape"/>
</filter>
</defs>
</svg>
