<svg width="33" height="32" viewBox="0 0 33 32" fill="none" xmlns="http://www.w3.org/2000/svg">
<path fill-rule="evenodd" clip-rule="evenodd" d="M23.0729 20.6375L31.6805 29.2454C31.983 29.5481 32.1529 29.9587 32.1528 30.3867C32.1526 30.8147 31.9824 31.2252 31.6797 31.5277C31.3769 31.8303 30.9664 32.0001 30.5384 32C30.1104 31.9998 29.6999 31.8297 29.3974 31.5269L20.7898 22.9191C18.2167 24.9121 14.9809 25.85 11.7408 25.542C8.50073 25.234 5.49968 23.7031 3.34818 21.2609C1.19669 18.8187 0.0563514 15.6486 0.159165 12.3954C0.261978 9.14224 1.60022 6.05044 3.90164 3.74896C6.20306 1.44748 9.29478 0.10921 12.5479 0.00639398C15.8009 -0.096422 18.971 1.04394 21.4131 3.19549C23.8553 5.34705 25.3861 8.34817 25.6941 11.5883C26.0022 14.8285 25.0643 18.0643 23.0713 20.6375H23.0729ZM12.9534 22.3991C15.4993 22.3991 17.941 21.3877 19.7413 19.5874C21.5415 17.7871 22.5529 15.3453 22.5529 12.7993C22.5529 10.2533 21.5415 7.81155 19.7413 6.01124C17.941 4.21093 15.4993 3.19952 12.9534 3.19952C10.4074 3.19952 7.96572 4.21093 6.16546 6.01124C4.36519 7.81155 3.35381 10.2533 3.35381 12.7993C3.35381 15.3453 4.36519 17.7871 6.16546 19.5874C7.96572 21.3877 10.4074 22.3991 12.9534 22.3991Z" fill="#808080"/>
</svg>
